<?xml version="1.0" standalone="no"?>
<!DOCTYPE svg PUBLIC "-//W3C//DTD SVG 20010904//EN"
 "http://www.w3.org/TR/2001/REC-SVG-20010904/DTD/svg10.dtd">
<svg version="1.0" xmlns="http://www.w3.org/2000/svg"
 width="331.000000pt" height="538.000000pt" viewBox="0 0 331.000000 538.000000"
 preserveAspectRatio="xMidYMid meet">
<metadata>
Created by potrace 1.15, written by Peter Selinger 2001-2017
</metadata>
<g transform="translate(0.000000,538.000000) scale(0.100000,-0.100000)"
fill="#000000" stroke="none">
<path d="M861 5233 c-5 -10 -68 -153 -139 -318 -72 -165 -167 -382 -211 -483
l-80 -183 75 3 76 3 139 330 c77 182 151 360 166 398 14 37 29 67 34 67 4 0
18 -28 32 -62 14 -35 49 -118 77 -186 l50 -123 -76 -182 c-43 -100 -83 -197
-91 -214 l-13 -33 67 0 68 0 60 145 c32 80 62 145 66 145 4 0 11 -10 15 -22 4
-13 29 -80 56 -150 l50 -128 64 0 c35 0 64 2 64 4 0 3 -37 99 -82 213 -45 114
-81 215 -81 223 1 8 37 96 79 194 l78 179 18 -39 c10 -21 83 -204 163 -406 86
-214 152 -369 161 -372 19 -7 119 -8 126 -1 4 5 -85 227 -360 893 l-46 112
-56 0 -56 0 -94 -216 c-51 -118 -97 -211 -101 -207 -4 4 -44 94 -87 199 -106
254 -93 234 -152 234 -37 0 -52 -4 -59 -17z"/>
<path d="M2080 5221 c-49 -15 -87 -40 -124 -81 -51 -57 -68 -101 -67 -178 0
-84 33 -156 94 -207 l46 -38 -35 -36 c-41 -43 -74 -125 -74 -186 0 -108 80
-222 175 -250 36 -11 108 -15 295 -15 l247 0 6 203 c4 111 7 336 7 500 l0 297
-272 -1 c-150 0 -284 -4 -298 -8z m430 -277 l0 -166 -192 7 c-222 8 -241 15
-279 91 -38 80 -16 159 61 212 31 21 42 22 221 22 l189 0 0 -166z m-2 -437 l3
-159 -179 4 c-197 3 -214 8 -252 71 -29 46 -27 134 3 177 43 63 71 71 257 68
l165 -3 3 -158z"/>
<path d="M1540 4190 c-179 -17 -370 -56 -523 -106 -43 -14 -84 -23 -92 -20 -8
3 -18 -1 -22 -8 -9 -15 -143 -80 -218 -106 -28 -9 -55 -26 -60 -37 -6 -12 -44
-54 -84 -93 -142 -141 -243 -336 -301 -585 -42 -178 -53 -293 -55 -555 l-3
-255 -37 -105 c-52 -149 -101 -360 -125 -539 -16 -120 -20 -210 -20 -412 l0
-259 27 6 c178 38 388 185 434 303 9 23 12 21 47 -40 110 -188 279 -373 408
-446 74 -42 204 -96 262 -108 17 -3 32 -13 32 -20 0 -25 50 -73 95 -92 l45
-18 0 -182 0 -182 -80 -80 c-78 -78 -96 -113 -65 -125 14 -5 36 15 108 99 l26
30 1 -47 c0 -56 14 -98 34 -98 22 0 27 26 20 114 l-7 81 67 -62 c36 -35 77
-65 91 -69 24 -6 45 1 45 15 0 11 -146 134 -170 143 -19 7 -20 17 -20 193 0
152 3 189 15 201 8 9 15 24 15 35 0 17 8 19 78 19 97 0 285 17 378 34 l71 13
10 -28 c6 -16 27 -38 46 -49 40 -24 37 -15 66 -236 11 -83 23 -170 27 -193 4
-28 3 -41 -5 -41 -6 0 -16 -11 -21 -24 -5 -14 -26 -43 -46 -66 -35 -38 -36
-42 -21 -57 15 -16 18 -15 42 7 13 12 35 38 47 56 12 18 30 32 40 31 17 -1 21
-14 30 -107 2 -14 10 -26 21 -28 14 -3 17 4 17 40 -1 24 -7 61 -15 83 -8 22
-15 41 -15 42 0 2 10 -1 23 -6 86 -35 190 -62 200 -52 21 21 -20 44 -129 72
-58 15 -107 29 -109 31 -1 2 -14 84 -29 183 -14 99 -29 196 -32 215 -5 32 -3
37 21 48 31 14 59 75 51 113 -5 25 1 31 66 69 147 88 254 229 319 419 l33 99
60 -40 c75 -52 280 -150 370 -177 87 -27 194 -29 203 -4 9 24 -13 253 -32 338
-41 178 -101 338 -245 650 -51 110 -116 257 -145 326 l-53 127 10 113 c13 148
4 501 -15 604 -51 269 -125 447 -240 572 -147 161 -352 231 -702 238 -99 2
-218 0 -265 -5z m455 -55 c110 -11 111 -12 57 -55 -109 -88 -397 -383 -507
-519 -31 -39 -61 -71 -65 -71 -5 0 -32 19 -62 43 -122 99 -385 269 -551 357
l-87 47 96 39 96 38 55 -29 c31 -17 91 -65 134 -107 43 -43 82 -78 87 -78 5 0
40 -31 79 -69 59 -58 77 -70 114 -76 l44 -7 29 59 c65 133 212 299 321 363 46
27 60 41 59 57 0 18 4 22 20 18 12 -2 48 -6 81 -10z m282 -75 c139 -64 230
-157 308 -315 93 -190 128 -377 128 -700 0 -249 -7 -335 -69 -840 -81 -660
-74 -614 -100 -632 -22 -14 -23 -17 -9 -43 13 -26 13 -36 -11 -117 -32 -114
-91 -233 -153 -309 -138 -171 -409 -265 -766 -267 -317 -2 -566 61 -732 187
-385 292 -666 1056 -640 1741 16 412 116 747 287 964 54 68 168 161 197 161
13 0 50 -11 82 -24 82 -33 398 -233 552 -348 72 -54 134 -98 139 -98 4 0 42
42 85 93 115 139 436 469 507 521 35 25 68 50 73 56 13 13 48 5 122 -30z m536
-2424 c65 -36 197 -85 284 -105 l51 -13 11 -62 c6 -34 11 -93 11 -131 l0 -68
-47 6 c-67 8 -130 30 -263 93 -122 58 -236 129 -245 153 -3 8 2 70 11 137 l17
123 54 -49 c30 -28 82 -65 116 -84z m-2390 -159 c-8 -22 -20 -52 -28 -67 -20
-39 -116 -124 -188 -166 -66 -39 -157 -75 -169 -68 -9 6 -9 24 -1 141 l5 83
61 37 c135 81 210 136 240 179 l31 44 31 -72 c30 -67 31 -73 18 -111z"/>
<path d="M2070 3714 c-133 -35 -256 -128 -307 -232 -51 -105 -43 -311 18 -458
40 -95 85 -145 167 -186 64 -31 72 -33 177 -33 281 1 488 143 536 366 50 231
-115 481 -358 544 -71 19 -161 18 -233 -1z m292 -76 c165 -76 279 -284 247
-452 -21 -112 -100 -216 -202 -265 -73 -35 -195 -62 -288 -62 -91 -1 -127 10
-163 50 -11 12 -27 21 -37 21 -24 0 -82 87 -110 165 -18 48 -22 84 -23 180 -1
110 1 125 25 176 49 104 175 198 295 219 84 15 181 3 256 -32z"/>
<path d="M2115 3501 c-46 -20 -94 -72 -127 -134 -18 -34 -23 -59 -23 -128 0
-77 3 -90 28 -127 88 -134 318 -98 413 64 57 97 51 181 -17 258 -73 82 -182
109 -274 67z"/>
<path d="M700 3598 c-138 -49 -258 -148 -307 -255 -47 -101 -44 -301 6 -408
11 -22 22 -50 26 -63 15 -52 124 -82 326 -89 141 -5 163 -4 227 16 179 54 292
210 292 403 0 167 -94 320 -238 386 -47 21 -75 26 -162 29 -90 3 -115 0 -170
-19z m326 -69 c76 -38 116 -80 154 -161 52 -109 48 -225 -10 -344 -36 -73 -91
-126 -169 -163 -52 -24 -66 -26 -191 -26 -179 1 -246 10 -253 36 -3 11 -14 19
-25 19 -31 0 -52 11 -52 26 0 7 -9 18 -20 24 -33 18 -53 108 -48 224 3 91 7
109 36 169 74 149 243 241 430 233 70 -3 94 -9 148 -37z"/>
<path d="M726 3426 c-118 -44 -184 -196 -141 -326 70 -211 357 -227 451 -26
40 85 29 199 -26 277 -52 71 -193 109 -284 75z"/>
<path d="M1460 3043 c-132 -22 -245 -76 -233 -111 17 -47 184 -220 249 -258
77 -45 117 -18 221 155 79 131 12 224 -157 220 -30 -1 -66 -4 -80 -6z m177
-88 c19 -21 21 -30 12 -53 -14 -39 -100 -162 -113 -162 -20 0 -62 34 -150 118
-97 93 -97 88 14 111 30 6 64 13 75 15 11 3 47 3 80 1 49 -4 64 -10 82 -30z"/>
<path d="M1415 2630 c-468 -18 -703 -84 -852 -239 -45 -46 -53 -68 -29 -77 10
-4 16 -32 21 -97 15 -218 58 -390 140 -563 65 -139 132 -238 231 -343 129
-138 265 -219 434 -262 118 -30 304 -23 435 15 110 33 253 100 345 161 88 58
197 175 234 250 89 182 172 528 183 765 5 115 4 129 -17 178 -24 56 -88 120
-150 152 -19 10 -73 28 -120 40 -78 21 -109 23 -365 25 -154 2 -374 -1 -490
-5z m822 -68 c193 -53 272 -132 273 -269 0 -71 -50 -374 -85 -513 -82 -328
-173 -448 -440 -583 -206 -103 -418 -140 -591 -103 -102 22 -260 100 -344 168
-200 165 -361 452 -424 760 -9 42 -21 131 -26 199 l-11 122 30 31 c154 159
533 220 1306 211 204 -2 251 -6 312 -23z"/>
<path d="M1687 2318 c-24 -40 -50 -83 -56 -95 -14 -27 -15 -83 -1 -83 6 0 10
5 10 10 0 7 6 7 18 1 12 -6 53 -5 120 4 55 7 109 12 119 11 35 -3 24 35 -33
110 -55 72 -100 114 -122 114 -5 0 -30 -33 -55 -72z"/>
<path d="M1186 2334 c-9 -8 -16 -22 -16 -29 0 -8 -14 -35 -31 -60 -32 -47 -52
-135 -31 -135 6 0 12 5 14 10 2 6 55 12 128 14 146 5 180 14 180 51 0 14 -5
25 -11 25 -6 0 -44 32 -83 70 -77 74 -116 89 -150 54z"/>
<path d="M2183 2332 c-18 -11 -103 -163 -103 -184 0 -20 20 -35 29 -21 9 15
140 24 186 13 22 -5 41 -7 44 -5 10 11 -42 120 -76 160 -37 44 -56 52 -80 37z"/>
<path d="M808 2271 c-151 -164 -150 -161 -11 -162 54 0 119 -2 146 -4 47 -2
52 1 47 35 -3 21 -103 178 -117 184 -6 3 -35 -21 -65 -53z"/>
<path d="M1553 2072 c-12 -20 -44 -68 -72 -105 -28 -37 -51 -72 -51 -76 0 -24
92 -27 170 -6 30 8 78 15 105 15 115 1 103 40 -58 178 -49 42 -68 41 -94 -6z"/>
<path d="M1004 1960 c-49 -55 -89 -108 -89 -117 0 -22 39 -30 188 -36 94 -3
121 -2 133 10 21 21 17 73 -9 115 -30 50 -104 128 -121 128 -7 0 -53 -45 -102
-100z"/>
<path d="M1985 2013 c-56 -56 -121 -150 -111 -161 4 -4 60 -10 124 -13 110 -6
117 -8 137 -33 11 -14 26 -26 33 -26 22 0 19 67 -5 114 -22 43 -113 166 -123
166 -5 0 -30 -21 -55 -47z"/>
<path d="M1816 1710 c-73 -58 -112 -109 -103 -134 3 -7 32 -13 78 -14 41 -1
90 -5 109 -8 42 -6 90 10 90 29 0 8 -16 44 -35 81 -19 37 -35 73 -35 81 0 32
-33 21 -104 -35z"/>
<path d="M1312 1734 c-12 -8 -22 -20 -22 -25 0 -16 -132 -189 -144 -189 -6 0
-6 -4 1 -11 8 -8 17 -8 32 1 24 12 190 29 299 30 56 0 72 3 72 15 0 31 -26 67
-60 85 -20 10 -59 39 -87 64 -28 25 -55 46 -60 46 -5 0 -19 -7 -31 -16z"/>
<path d="M1640 1433 c0 -5 -14 -16 -30 -25 -17 -9 -30 -25 -30 -34 0 -9 -11
-29 -25 -46 -41 -48 -35 -54 63 -56 48 -2 101 -5 117 -8 22 -4 38 0 55 14 l25
20 -73 71 c-65 63 -102 86 -102 64z"/>
</g>
</svg>
