<?xml version="1.0" standalone="no"?>
<!DOCTYPE svg PUBLIC "-//W3C//DTD SVG 20010904//EN"
 "http://www.w3.org/TR/2001/REC-SVG-20010904/DTD/svg10.dtd">
<svg version="1.0" xmlns="http://www.w3.org/2000/svg"
 width="1037.000000pt" height="723.000000pt" viewBox="0 0 1037.000000 723.000000"
 preserveAspectRatio="xMidYMid meet">
<metadata>
Created by potrace 1.16, written by Peter Selinger 2001-2019
</metadata>
<g transform="translate(0.000000,723.000000) scale(0.100000,-0.100000)"
fill="#000000" stroke="none">
<path d="M3729 7081 c-221 -79 -334 -297 -316 -609 14 -234 27 -393 37 -434 5
-24 10 -68 10 -99 0 -31 7 -91 16 -132 8 -41 14 -103 12 -138 l-3 -64 -90 -12
c-49 -7 -124 -19 -165 -28 -41 -8 -96 -20 -122 -25 -26 -5 -56 -13 -67 -19
-11 -6 -29 -11 -40 -11 -11 0 -35 -6 -53 -14 -18 -7 -58 -21 -88 -31 -30 -9
-64 -21 -75 -25 -11 -5 -60 -25 -110 -45 -49 -20 -94 -41 -100 -46 -20 -19
-42 -8 -62 34 -12 23 -44 92 -73 152 -76 162 -284 580 -326 655 -71 130 -78
140 -153 221 -62 68 -95 90 -183 125 -211 83 -500 -41 -588 -252 -28 -67 -30
-82 -30 -190 0 -121 7 -156 58 -299 30 -85 44 -121 96 -237 8 -18 27 -60 42
-93 43 -96 108 -232 246 -514 71 -145 127 -269 125 -275 -3 -7 -22 -39 -43
-72 -67 -103 -129 -218 -164 -304 -12 -30 -28 -68 -35 -85 -19 -45 -36 -96
-45 -135 -5 -19 -18 -71 -29 -115 -40 -164 -51 -267 -51 -503 0 -231 16 -386
55 -552 9 -36 20 -85 25 -110 6 -24 15 -49 20 -54 6 -6 10 -18 10 -28 0 -9 6
-32 14 -50 8 -18 29 -69 47 -113 32 -77 54 -121 114 -230 25 -45 133 -209 162
-245 73 -93 210 -281 241 -332 37 -59 49 -85 97 -193 7 -16 18 -48 25 -70 7
-22 19 -55 26 -73 8 -18 14 -42 14 -53 0 -11 5 -29 10 -40 6 -10 15 -38 19
-61 5 -24 17 -74 25 -113 9 -38 24 -104 32 -145 48 -229 54 -250 93 -333 31
-66 31 -70 14 -82 -10 -8 -31 -17 -48 -20 -41 -9 -235 -65 -260 -76 -11 -4
-29 -10 -40 -12 -11 -3 814 -5 1832 -6 l1853 -1 24 37 c48 76 176 193 210 193
15 0 15 -3 2 -28 -19 -37 -30 -121 -22 -166 7 -35 8 -36 51 -36 49 0 49 0 35
49 -14 50 5 112 46 152 34 33 38 34 112 34 66 0 83 -4 118 -27 55 -36 117
-107 139 -162 l19 -46 71 0 c46 1 77 6 89 15 25 19 87 19 112 0 12 -9 44 -14
93 -15 l73 0 -16 25 c-35 53 -9 115 48 115 56 0 144 -65 161 -120 5 -16 15
-20 56 -20 27 0 49 3 49 8 0 12 -59 110 -70 117 -5 3 -10 15 -10 26 0 15 7 19
37 19 55 0 126 -52 161 -117 l27 -53 148 0 147 0 11 28 c24 62 -19 183 -93
259 -31 31 -39 45 -31 55 6 7 16 30 23 51 10 32 9 46 -4 87 -9 27 -16 51 -16
54 0 22 252 -27 330 -64 8 -4 36 -17 62 -29 65 -30 147 -107 169 -159 29 -68
25 -154 -10 -224 l-30 -58 260 0 259 0 23 27 c12 15 36 43 53 62 17 20 52 65
79 101 27 36 52 67 55 70 16 14 195 276 242 355 121 202 248 463 303 620 9 28
21 59 25 70 9 26 36 115 54 185 8 30 20 75 27 100 8 29 14 138 16 309 4 250 3
263 -14 256 -10 -4 -38 -13 -63 -20 -61 -17 -159 -45 -195 -56 -16 -4 -52 -15
-80 -23 -27 -8 -75 -22 -105 -31 -30 -9 -75 -22 -100 -29 -55 -17 -138 -40
-278 -80 -28 -8 -56 -17 -61 -21 -5 -3 -29 -10 -53 -15 -24 -5 -65 -16 -93
-24 -27 -8 -75 -22 -105 -31 -92 -27 -152 -45 -205 -61 -27 -8 -66 -19 -85
-24 -19 -5 -60 -16 -90 -26 -66 -20 -126 -37 -200 -58 -68 -19 -150 -42 -215
-62 -27 -8 -66 -19 -85 -24 -19 -4 -48 -13 -65 -18 -16 -6 -57 -18 -90 -28
-33 -9 -71 -20 -85 -25 -14 -4 -52 -15 -85 -24 -33 -9 -78 -22 -100 -29 -22
-7 -65 -20 -95 -28 -115 -33 -176 -51 -215 -63 -22 -7 -69 -20 -105 -30 -36
-9 -76 -21 -90 -25 -14 -5 -52 -16 -85 -25 -64 -18 -135 -40 -200 -60 -92 -30
-102 -28 -153 19 -26 23 -62 51 -80 62 -18 10 -66 64 -106 119 -71 96 -208
237 -329 338 -31 27 -57 55 -57 63 0 8 10 31 23 52 24 37 87 166 125 252 58
134 116 328 134 450 5 36 13 90 18 120 12 77 11 520 0 605 -6 39 -14 104 -19
145 -22 176 -101 428 -194 620 -55 113 -169 290 -249 385 -169 200 -399 378
-633 489 -55 26 -116 56 -135 66 l-35 18 -7 98 c-3 55 -11 119 -17 144 -6 25
-11 65 -11 90 0 25 -7 97 -15 160 -9 63 -23 167 -31 230 -33 252 -65 443 -92
540 -43 156 -154 278 -302 333 -61 23 -255 22 -321 -2z m281 -85 c71 -22 104
-43 153 -95 79 -85 122 -211 157 -471 6 -41 17 -122 25 -180 19 -134 44 -339
55 -458 5 -50 14 -118 20 -149 5 -31 10 -74 10 -96 0 -45 8 -44 -120 -7 -41
11 -81 27 -88 34 -7 7 -16 57 -22 118 -5 58 -12 116 -15 129 -3 13 -10 71 -15
129 -6 58 -17 159 -25 225 -8 66 -20 163 -25 215 -6 52 -15 111 -20 130 -6 19
-10 49 -10 65 -1 40 -30 103 -64 137 -71 70 -193 69 -264 -2 -39 -40 -62 -101
-62 -168 0 -72 54 -569 92 -840 6 -45 8 -85 4 -90 -4 -4 -47 -9 -95 -10 -107
-5 -111 -1 -122 108 -4 43 -12 112 -18 152 -22 154 -34 280 -45 473 -13 227
-4 353 33 447 36 92 114 168 209 202 50 18 196 19 252 2z m-65 -332 c26 -10
45 -60 56 -142 5 -42 16 -129 25 -192 8 -63 19 -160 24 -215 6 -54 15 -115 20
-135 5 -19 10 -64 10 -100 0 -36 7 -96 15 -135 8 -38 15 -87 15 -109 l0 -39
-47 7 c-27 3 -73 9 -105 12 l-56 7 -6 56 c-4 31 -11 83 -16 116 -14 87 -30
234 -40 352 -5 56 -11 107 -15 113 -3 6 -10 77 -15 158 -10 157 -3 218 26 239
19 14 81 17 109 7z m-2209 -211 c105 -35 179 -106 264 -251 75 -129 341 -663
426 -857 21 -47 21 -51 6 -69 -9 -10 -26 -22 -37 -27 -11 -5 -33 -18 -50 -29
-59 -39 -72 -39 -92 1 -6 13 -31 67 -56 119 -25 52 -64 136 -87 185 -277 585
-313 650 -382 684 -131 63 -278 -25 -278 -166 0 -43 37 -162 69 -220 5 -10 22
-45 37 -78 46 -104 149 -320 312 -655 44 -91 77 -170 73 -176 -16 -28 -126
-144 -136 -144 -12 0 -24 23 -178 340 -153 317 -202 422 -262 565 -20 50 -44
104 -51 122 -8 17 -14 37 -14 45 0 8 -4 18 -9 24 -35 37 -53 287 -25 362 42
112 120 179 269 230 47 16 147 14 201 -5z m-41 -337 c11 -8 31 -34 43 -57 13
-24 27 -51 32 -59 15 -26 238 -489 325 -675 21 -44 48 -102 61 -128 13 -27 24
-54 23 -60 -1 -16 -147 -129 -158 -123 -16 10 -353 712 -444 926 -49 114 -22
187 68 189 17 1 40 -5 50 -13z m2235 -596 c215 -22 453 -77 590 -137 401 -176
658 -385 864 -702 137 -211 225 -433 280 -701 62 -304 60 -790 -4 -1030 -6
-25 -18 -70 -26 -100 -9 -30 -19 -62 -23 -70 -5 -9 -12 -30 -15 -48 -4 -17
-12 -34 -17 -37 -5 -4 -9 -13 -9 -22 0 -20 -112 -250 -162 -331 -21 -34 -38
-65 -38 -67 0 -3 -12 -24 -27 -48 -38 -58 -51 -80 -59 -97 -4 -8 -24 -42 -43
-75 -56 -94 -106 -204 -163 -355 -47 -122 -65 -186 -84 -290 -14 -78 -36 -110
-75 -110 -10 0 -36 -6 -56 -14 -21 -7 -67 -22 -103 -31 -36 -10 -83 -23 -105
-30 -22 -7 -69 -21 -105 -30 -36 -10 -83 -23 -105 -30 -50 -16 -93 -28 -170
-50 -33 -9 -78 -23 -100 -30 -22 -7 -69 -20 -105 -30 -36 -10 -83 -23 -105
-30 -54 -17 -95 -29 -185 -54 -41 -12 -88 -25 -105 -30 -16 -5 -57 -17 -90
-26 -33 -9 -78 -23 -100 -30 -22 -7 -69 -20 -105 -30 -36 -10 -83 -23 -105
-30 -22 -7 -67 -21 -100 -30 -77 -22 -120 -34 -170 -50 -22 -7 -69 -20 -105
-30 -36 -9 -83 -23 -105 -30 -22 -7 -69 -20 -105 -30 -36 -10 -84 -24 -108
-33 -38 -13 -44 -13 -60 1 -36 33 -92 171 -113 282 -97 511 -184 763 -337 976
-26 37 -88 120 -138 185 -151 198 -274 404 -332 555 -38 98 -63 169 -72 209
-5 19 -14 55 -20 80 -25 103 -30 135 -42 227 -17 126 -17 522 -1 633 19 131
46 237 90 365 14 39 27 79 30 90 13 44 119 245 170 323 63 96 185 243 269 323
47 45 149 129 239 197 81 62 299 179 440 237 50 20 99 41 110 45 157 65 545
159 663 161 26 0 67 4 92 8 67 12 241 12 360 1z m1587 -3399 c118 -102 263
-261 263 -288 0 -6 -44 -13 -101 -17 -90 -6 -118 -13 -196 -49 -75 -34 -172
-173 -174 -249 0 -18 -4 -53 -7 -77 l-7 -43 -56 78 c-31 44 -66 88 -78 98 -11
11 -21 27 -21 36 0 9 25 74 56 146 75 175 82 189 129 269 73 124 95 155 110
155 8 0 45 -26 82 -59z m1349 -1110 c-25 -25 -26 -25 -61 -8 -55 26 -110 22
-172 -13 -50 -28 -59 -30 -116 -24 -34 4 -68 11 -74 17 -8 6 -13 34 -13 73 l0
63 31 -29 c63 -57 109 -45 154 42 15 29 31 57 36 63 6 5 25 -7 52 -33 23 -23
52 -42 64 -42 21 0 103 61 113 84 3 6 6 -29 8 -78 3 -84 1 -91 -22 -115z
m-1408 146 c85 -53 127 -62 282 -62 143 0 146 1 212 33 37 17 70 32 74 32 17
0 -10 -107 -38 -149 -51 -78 -128 -119 -246 -129 -138 -11 -242 64 -325 237
-32 65 -20 76 41 38z m1916 -142 c62 -29 94 -60 101 -100 9 -46 -13 -67 -79
-76 -57 -7 -126 4 -126 21 0 5 -13 32 -30 58 -38 62 -38 87 -2 106 39 22 76
19 136 -9z m-274 -74 c47 -34 90 -100 90 -138 0 -56 -22 -73 -94 -73 -77 1
-95 14 -136 103 -37 78 -35 110 7 126 37 14 102 5 133 -18z m-328 -35 c64 -27
128 -114 128 -173 -1 -29 -27 -55 -74 -73 -22 -8 -28 -6 -40 13 -8 12 -18 36
-22 52 -7 30 -68 130 -85 141 -16 10 -9 31 14 42 30 15 39 14 79 -2z m-202
-67 c52 -36 89 -85 114 -152 27 -71 18 -90 -53 -111 -33 -10 -67 -16 -77 -14
-10 1 -33 26 -52 53 -20 28 -55 70 -80 94 -40 41 -44 48 -39 83 11 82 102 105
187 47z m925 -135 c41 -31 85 -112 85 -156 0 -29 -5 -38 -33 -53 -55 -29 -92
-10 -152 82 -27 41 -54 82 -60 89 -13 18 3 44 36 62 32 17 84 7 124 -24z"/>
<path d="M3440 5234 c-92 -18 -195 -40 -275 -60 -82 -21 -295 -93 -333 -113
-9 -5 -48 -24 -87 -43 -38 -18 -98 -50 -133 -70 -34 -21 -65 -38 -68 -38 -5 0
-146 -102 -194 -139 -114 -91 -281 -281 -356 -406 -255 -422 -301 -922 -137
-1490 24 -82 90 -247 131 -325 144 -273 381 -522 615 -645 20 -11 37 -25 37
-32 0 -7 -17 -24 -37 -37 -53 -35 -64 -45 -99 -91 -127 -167 -55 -427 160
-574 78 -54 202 -111 286 -131 19 -5 53 -13 75 -18 137 -34 223 -38 340 -17
157 29 270 86 394 200 45 41 191 229 191 246 0 5 10 26 23 47 27 44 87 179 87
197 0 16 43 55 62 55 17 0 85 20 183 53 107 36 138 48 260 102 38 16 130 45
147 45 19 1 51 30 77 73 12 20 27 37 31 37 19 0 212 174 275 247 164 191 274
402 338 648 47 181 52 222 52 500 0 277 -6 332 -52 525 -98 410 -347 769 -688
992 -107 70 -166 99 -360 178 -58 24 -217 64 -331 84 -118 21 -503 20 -614 0z
m605 -90 c124 -21 249 -53 313 -80 18 -8 38 -14 44 -14 23 0 253 -123 330
-177 86 -60 177 -140 243 -212 22 -25 48 -53 58 -64 24 -24 15 -33 -15 -13
-12 8 -58 26 -102 40 -63 21 -99 26 -177 26 -93 0 -247 -20 -314 -40 -114 -35
-166 -54 -171 -61 -3 -5 -12 -9 -21 -9 -21 0 -140 -80 -187 -127 -89 -89 -126
-172 -126 -283 1 -183 102 -307 303 -370 80 -25 316 -28 416 -5 75 17 166 43
196 56 161 67 245 127 311 224 39 58 54 112 54 200 0 47 4 85 8 85 11 0 63
-117 107 -245 12 -36 31 -113 65 -275 17 -81 24 -467 11 -575 -15 -118 -29
-204 -40 -235 -4 -14 -16 -52 -26 -85 -63 -215 -183 -420 -348 -591 -98 -102
-146 -135 -132 -91 4 12 9 95 12 184 4 131 2 178 -12 240 -48 217 -138 367
-305 503 -41 34 -42 37 -29 60 9 17 13 56 13 115 0 73 -5 98 -23 132 -26 49
-46 59 -77 38 -28 -18 -30 -35 -8 -78 11 -20 17 -56 17 -100 0 -60 -3 -72 -29
-104 -16 -20 -53 -49 -82 -66 -65 -36 -156 -42 -221 -13 -43 20 -52 33 -56 86
-2 19 -6 54 -10 77 -5 36 -2 46 23 75 66 77 79 127 46 189 -44 87 -139 120
-236 82 -124 -47 -179 -145 -132 -236 30 -58 74 -85 143 -88 66 -3 75 -18 69
-115 -6 -91 -31 -128 -114 -170 -49 -25 -69 -29 -139 -29 -73 0 -85 3 -116 26
-61 47 -119 108 -119 124 0 9 -7 29 -15 45 -20 40 -65 42 -85 5 -9 -17 -19
-24 -29 -19 -26 10 -123 21 -143 16 -23 -6 -34 -47 -18 -67 7 -8 28 -17 49
-21 163 -27 277 -108 343 -241 31 -64 67 -208 68 -275 0 -34 -4 -39 -52 -67
-63 -36 -131 -101 -164 -156 -26 -46 -76 -188 -95 -275 -20 -91 -81 -263 -101
-287 -8 -11 -25 -12 -67 -7 -31 3 -61 11 -68 16 -6 5 -24 13 -40 18 -15 5 -52
18 -82 29 -29 11 -74 23 -100 26 -55 8 -65 11 -158 58 -125 63 -244 149 -349
252 -118 117 -171 185 -246 315 -262 456 -333 1076 -172 1513 8 23 18 51 21
62 16 50 98 203 154 284 72 107 207 253 293 319 34 25 63 49 66 53 21 28 293
184 396 226 250 103 534 173 764 187 98 6 323 -5 415 -20z m812 -596 c169 -41
253 -147 253 -318 0 -64 -4 -82 -29 -125 -73 -125 -208 -204 -447 -259 -108
-25 -321 -23 -398 4 -158 54 -231 144 -230 285 0 96 45 173 144 249 108 81
229 129 415 164 73 14 237 14 292 0z m-316 -1525 c134 -130 109 -154 -166
-163 -245 -8 -251 -13 -300 -242 -22 -105 -57 -130 -115 -84 -27 22 -121 46
-181 46 l-59 0 0 35 c0 46 -27 179 -45 227 -22 56 -14 65 68 73 94 9 169 45
229 108 l47 50 43 -23 c35 -19 59 -23 133 -24 84 0 94 2 160 36 39 20 78 37
89 37 10 1 53 -33 97 -76z m-671 -550 c58 -22 89 -45 122 -95 107 -158 79
-467 -71 -783 -142 -297 -340 -469 -584 -505 -231 -35 -578 79 -713 233 -146
168 -116 381 66 459 104 45 171 35 378 -59 57 -26 60 -32 36 -68 -20 -31 -10
-63 21 -71 50 -12 137 87 195 221 23 53 48 126 73 215 9 30 23 79 31 109 9 29
16 60 16 67 0 8 4 22 9 32 5 9 17 37 27 62 27 65 117 151 184 177 67 26 149
29 210 6z"/>
<path d="M2890 4289 c-65 -8 -103 -17 -191 -44 -26 -8 -52 -15 -58 -15 -18 0
-159 -69 -219 -107 -80 -51 -165 -143 -203 -222 -28 -57 -34 -79 -37 -159 -9
-204 81 -321 297 -386 61 -18 276 -22 351 -6 25 6 68 15 95 20 238 47 458 163
553 292 56 77 72 128 72 235 0 89 -3 104 -44 192 -28 62 -126 136 -241 183
-65 26 -242 34 -375 17z m355 -107 c76 -27 109 -47 144 -87 54 -61 74 -116 74
-203 0 -81 -13 -119 -67 -191 -77 -103 -282 -200 -541 -256 -118 -25 -328 -18
-408 14 -122 48 -177 130 -177 264 0 67 4 86 32 143 67 138 229 243 477 311
134 37 373 39 466 5z"/>
<path d="M2845 3943 c-11 -3 -30 -16 -42 -31 -30 -33 -32 -109 -5 -140 42 -48
121 -51 163 -6 33 35 32 115 -2 149 -24 24 -78 37 -114 28z"/>
<path d="M2870 2911 c-85 -26 -145 -87 -156 -156 -18 -121 49 -205 165 -205
130 0 231 113 200 223 -17 59 -55 106 -103 128 -44 20 -66 22 -106 10z"/>
<path d="M4504 4310 c-70 -28 -74 -140 -7 -181 46 -29 94 -20 128 25 67 89
-17 198 -121 156z"/>
<path d="M1760 393 c-14 -2 -43 -10 -65 -18 -22 -7 -67 -21 -100 -30 -33 -9
-71 -20 -85 -25 -26 -9 -103 -31 -200 -57 -30 -8 -73 -20 -95 -27 -22 -7 -66
-20 -97 -29 -32 -10 -84 -24 -115 -34 -32 -9 -76 -22 -98 -29 -22 -7 -67 -20
-100 -29 -33 -9 -71 -20 -85 -25 -14 -4 -54 -16 -90 -25 -36 -10 -90 -26 -120
-36 -54 -18 -16 -18 1468 -19 l1522 0 0 25 0 25 -850 0 -850 0 0 170 c0 94 -3
169 -7 169 -5 -1 -19 -4 -33 -6z"/>
<path d="M3600 35 l0 -25 311 0 c280 0 311 2 305 16 -3 9 -6 20 -6 25 0 5
-126 9 -305 9 l-305 0 0 -25z"/>
<path d="M4284 44 c3 -9 6 -20 6 -25 0 -5 345 -9 863 -9 l862 1 -45 24 -45 24
-824 1 c-747 0 -823 -1 -817 -16z"/>
<path d="M7280 37 l-75 -22 465 -3 464 -2 25 25 26 25 -415 -1 c-395 -1 -419
-2 -490 -22z"/>
</g>
</svg>
